<svg id="Layer_1" data-name="Layer 1" xmlns="http://www.w3.org/2000/svg" width="16" height="16" viewBox="0 0 16 16"><defs><style>.cls-1{fill:#dccca6;opacity:0.43;}.cls-2{fill:#545646;}.cls-3{fill:none;stroke:#21211d;stroke-miterlimit:10;stroke-width:0.25px;}</style></defs><title>logo_1616</title><ellipse class="cls-1" cx="8.21" cy="8.59" rx="7.71" ry="6.59"/><polygon class="cls-2" points="10.23 7.35 13.08 4 11.82 4 9.43 6.81 8.63 7.74 8.63 4 7.57 4 7.57 4.76 3.49 4.76 3.49 5.67 5.49 5.67 5.49 12.09 3.49 12.09 3.49 13 8.63 13 8.63 12.09 6.59 12.09 6.59 5.67 7.57 5.67 7.57 11.65 8.63 11.65 8.63 9.07 9.54 8.1 12.01 11.65 13.27 11.65 10.23 7.35"/><polygon class="cls-3" points="10.23 7.35 13.08 4 11.82 4 9.43 6.81 8.63 7.74 8.63 4 7.57 4 7.57 4.76 3.49 4.76 3.49 5.67 5.49 5.67 5.49 12.09 3.49 12.09 3.49 13 8.63 13 8.63 12.09 6.59 12.09 6.59 5.67 7.57 5.67 7.57 11.65 8.63 11.65 8.63 9.07 9.54 8.1 12.01 11.65 13.27 11.65 10.23 7.35"/></svg>
