<svg id="Layer_1" data-name="Layer 1" xmlns="http://www.w3.org/2000/svg" width="116" height="107" viewBox="0 0 116 107"><defs><style>.cls-1{fill:none;stroke:#fff;stroke-width:5px;}.cls-2{fill:#fff;}.cls-3{fill:#777c63;}.cls-4{fill:#f8f9f4;}</style></defs><title>fb_01</title><path id="Rectangle_1496" data-name="Rectangle 1496" class="cls-1" d="M37.36,24.37h39.7a9.64,9.64,0,0,1,9.7,9.57V73.1a9.64,9.64,0,0,1-9.7,9.57H37.36a9.64,9.64,0,0,1-9.7-9.57V33.94A9.64,9.64,0,0,1,37.36,24.37Z"/><ellipse id="Ellipse_1" data-name="Ellipse 1" class="cls-2" cx="75.27" cy="35.09" rx="3.52" ry="3.47"/><ellipse id="Ellipse_2" data-name="Ellipse 2" class="cls-1" cx="57.56" cy="54.56" rx="15.13" ry="14.92"/><path id="Path_313" data-name="Path 313" class="cls-3" d="M30.4,6.69H85.12A20.29,20.29,0,0,1,105.42,27V81.7A20.3,20.3,0,0,1,85.12,102H30.4A20.3,20.3,0,0,1,10.1,81.7h0V27A20.29,20.29,0,0,1,30.4,6.69Z"/><g id="f"><g id="Group_5" data-name="Group 5"><path id="Path_311" data-name="Path 311" class="cls-4" d="M40.38,49.24V38h9.55V33.33q0-8.14,4.84-13.33t14.61-5.19c1.42,0,2.84.06,4.27.18s2.81.22,4.16.3V26.74A46.56,46.56,0,0,0,72,25.92c-2.17,0-3.53.06-4.66,1.59-1.71,2.3-1.4,4.36-1.4,6.88V38h11L74.2,49.47l-8.31-.23V99h-16V49.24Z"/></g></g></svg>
