<svg id="Layer_1" data-name="Layer 1" xmlns="http://www.w3.org/2000/svg" width="116" height="107" viewBox="0 0 116 107"><defs><style>.cls-1{fill:#777c63;}.cls-2{fill:none;stroke:#fff;stroke-width:5px;}.cls-3{fill:#fff;}</style></defs><title>instagram_01</title><path id="Rectangle_1495" data-name="Rectangle 1495" class="cls-1" d="M30.9,8.06H84.22A19.64,19.64,0,0,1,104,27.57v52.6A19.65,19.65,0,0,1,84.22,99.68H30.9A19.65,19.65,0,0,1,11.12,80.17V27.57A19.65,19.65,0,0,1,30.9,8.06Z"/><path id="Rectangle_1496" data-name="Rectangle 1496" class="cls-2" d="M37.36,24.37h39.7a9.64,9.64,0,0,1,9.7,9.57V73.1a9.64,9.64,0,0,1-9.7,9.57H37.36a9.64,9.64,0,0,1-9.7-9.57V33.94A9.64,9.64,0,0,1,37.36,24.37Z"/><ellipse id="Ellipse_1" data-name="Ellipse 1" class="cls-3" cx="75.27" cy="35.09" rx="3.52" ry="3.47"/><ellipse id="Ellipse_2" data-name="Ellipse 2" class="cls-2" cx="57.56" cy="54.56" rx="15.13" ry="14.92"/></svg>
