<svg id="Layer_1" data-name="Layer 1" xmlns="http://www.w3.org/2000/svg" width="116" height="107" viewBox="0 0 116 107"><defs><style>.cls-1{fill:#777c63;}.cls-2{isolation:isolate;}.cls-3{fill:#fff;}</style></defs><title>linkedin_01</title><path id="Path_313" data-name="Path 313" class="cls-1" d="M30.87,8.06H84.2A19.64,19.64,0,0,1,104,27.57v52.6A19.64,19.64,0,0,1,84.2,99.68H30.87A19.65,19.65,0,0,1,11.09,80.17h0V27.57A19.65,19.65,0,0,1,30.87,8.06Z"/><g id="in" class="cls-2"><g class="cls-2"><path class="cls-3" d="M24.9,37.91a7.91,7.91,0,0,1,2.22-5.7A7.66,7.66,0,0,1,32.9,29.9a7.64,7.64,0,0,1,5.77,2.31,7.91,7.91,0,0,1,2.22,5.7,7.9,7.9,0,0,1-2.22,5.69,7.64,7.64,0,0,1-5.77,2.31,7.66,7.66,0,0,1-5.78-2.31A7.9,7.9,0,0,1,24.9,37.91Zm.89,56.3V50.63H40V94.21Z"/><path class="cls-3" d="M51.11,94.21V50.63H64.78v5.69a11.93,11.93,0,0,1,5.29-5.07A16,16,0,0,1,77,49.74a14.06,14.06,0,0,1,7.37,1.82,14.84,14.84,0,0,1,4.93,4.85,21.29,21.29,0,0,1,2.76,7,40,40,0,0,1,.84,8.32v22.5H78.64V71.44c0-3.61-.56-6.27-1.69-8A5.75,5.75,0,0,0,71.8,61a7.4,7.4,0,0,0-3.86,1,8.24,8.24,0,0,0-2.62,2.41V94.21Z"/></g></g></svg>
