<svg id="Layer_1" data-name="Layer 1" xmlns="http://www.w3.org/2000/svg" width="116" height="107" viewBox="0 0 116 107"><defs><style>.cls-1{fill:#606060;}.cls-2{fill:none;stroke:#f7a152;stroke-miterlimit:10;}.cls-3{isolation:isolate;}.cls-4{fill:#fff;}</style></defs><title>linkedin</title><path id="Path_313" data-name="Path 313" class="cls-1" d="M30.87,8.06H84.2A19.64,19.64,0,0,1,104,27.57v52.6A19.64,19.64,0,0,1,84.2,99.68H30.87A19.65,19.65,0,0,1,11.09,80.17h0V27.57A19.65,19.65,0,0,1,30.87,8.06Z"/><path id="Path_313-2" data-name="Path 313" class="cls-2" d="M32.87,8.06H86.2A19.64,19.64,0,0,1,106,27.57v52.6A19.64,19.64,0,0,1,86.2,99.68H32.87A19.65,19.65,0,0,1,13.09,80.17h0V27.57A19.65,19.65,0,0,1,32.87,8.06Z"/><g id="in" class="cls-3"><g class="cls-3"><path class="cls-4" d="M30.33,35.38a6.72,6.72,0,0,1,7-6.87,6.87,6.87,0,1,1,0,13.74,6.7,6.7,0,0,1-7-6.87Zm.78,48.33V46.3H43.49V83.71Z"/><path class="cls-4" d="M53.17,83.71V46.3H65.09v4.89a10.22,10.22,0,0,1,4.6-4.35,14.11,14.11,0,0,1,6-1.3,12.36,12.36,0,0,1,6.42,1.56,12.86,12.86,0,0,1,4.3,4.16,18.15,18.15,0,0,1,2.4,6,33.63,33.63,0,0,1,.73,7.14V83.71H77.16V64.17q0-4.66-1.47-6.84a5,5,0,0,0-4.49-2.17,6.56,6.56,0,0,0-3.37.84,7.23,7.23,0,0,0-2.28,2.06V83.71Z"/></g></g><g id="in-2" data-name="in" class="cls-3"><g class="cls-3"><path class="cls-2" d="M32.33,35.38a6.72,6.72,0,0,1,7-6.87,6.87,6.87,0,1,1,0,13.74,6.7,6.7,0,0,1-7-6.87Zm.78,48.33V46.3H45.49V83.71Z"/><path class="cls-2" d="M55.17,83.71V46.3H67.09v4.89a10.22,10.22,0,0,1,4.6-4.35,14.11,14.11,0,0,1,6-1.3,12.36,12.36,0,0,1,6.42,1.56,12.86,12.86,0,0,1,4.3,4.16,18.15,18.15,0,0,1,2.4,6,33.63,33.63,0,0,1,.73,7.14V83.71H79.16V64.17q0-4.66-1.47-6.84a5,5,0,0,0-4.49-2.17,6.56,6.56,0,0,0-3.37.84,7.23,7.23,0,0,0-2.28,2.06V83.71Z"/></g></g></svg>
