<svg id="Layer_1" data-name="Layer 1" xmlns="http://www.w3.org/2000/svg" width="160" height="150" viewBox="0 0 160 150"><defs><style>.cls-1{fill:#efd5bf;}.cls-2{fill:#f7a152;}.cls-3{fill:none;stroke:#fff;stroke-miterlimit:10;stroke-width:0.5px;}</style></defs><title>logo_IK copy 2</title><ellipse class="cls-1" cx="80.5" cy="78.5" rx="71.5" ry="66"/><path class="cls-2" d="M38.77,45.94h43V53.8h-17v55.42h17V117h-43v-7.81H55.42V53.8H38.77Z"/><path class="cls-2" d="M89.36,74.78l-7.6,8.34v22.31H72.89v-66h8.87V71.65l6.62-8,20-24.25H119L95.09,68.3l25.48,37.13H110Z"/><polygon class="cls-3" points="93.09 67.3 116.97 38.42 106.42 38.42 86.38 62.67 79.76 70.65 79.76 38.42 70.89 38.42 70.89 44.94 36.77 44.94 36.77 52.8 53.42 52.8 53.42 108.22 36.77 108.22 36.77 116.03 79.74 116.03 79.74 108.22 62.7 108.22 62.7 52.8 70.89 52.8 70.89 104.43 79.76 104.43 79.76 82.12 87.36 73.78 108.01 104.43 118.57 104.43 93.09 67.3"/></svg>
