<svg id="Layer_1" data-name="Layer 1" xmlns="http://www.w3.org/2000/svg" width="260" height="260" viewBox="0 0 260 260"><defs><style>.cls-1{fill:#777c63;}.cls-2{fill:none;stroke:#777c63;stroke-miterlimit:10;}</style></defs><title>favicon_ik</title><path class="cls-1" d="M45.13,66.42h3.32A7.42,7.42,0,0,0,51.21,66a5.41,5.41,0,0,0,1.93-1.48l21.7-24.57a7,7,0,0,1,1.94-1.62,5.21,5.21,0,0,1,2.39-.48h7.5L61.83,65.92A21,21,0,0,1,60,67.69a8.2,8.2,0,0,1-1.79,1.19,6.44,6.44,0,0,1,2.23,1.22,19.7,19.7,0,0,1,2,2.05l25.93,30.9H80.76a6.69,6.69,0,0,1-1.46-.14,3.94,3.94,0,0,1-1-.37,3.18,3.18,0,0,1-.8-.59c-.24-.24-.48-.5-.72-.77L54.23,75.29q-.49-.54-.93-.93a4.13,4.13,0,0,0-1-.66A4.87,4.87,0,0,0,51,73.31a13.45,13.45,0,0,0-1.84-.11h-4v29.85H36.35V37.84h8.78Z"/><path class="cls-1" d="M124.67,75.84v27.21h-8.79V37.84h18.43A39.94,39.94,0,0,1,145,39.1a20.35,20.35,0,0,1,7.44,3.61,14.47,14.47,0,0,1,4.35,5.71,19.12,19.12,0,0,1,1.41,7.49,18.72,18.72,0,0,1-1.09,6.46A17.09,17.09,0,0,1,154,67.76a19.07,19.07,0,0,1-5.06,4.07,24.71,24.71,0,0,1-6.75,2.55,9.32,9.32,0,0,1,2.91,2.78l19,25.89h-7.83a3.87,3.87,0,0,1-3.55-1.87l-16.92-23.3a5.05,5.05,0,0,0-1.69-1.57,6.17,6.17,0,0,0-2.73-.47Zm0-6.42h9.23a22.61,22.61,0,0,0,6.81-.93,13.82,13.82,0,0,0,4.91-2.64,11,11,0,0,0,3-4.07,13.27,13.27,0,0,0,1-5.24q0-5.82-3.85-8.78t-11.44-2.95h-9.64Z"/><path class="cls-1" d="M224.54,48a3.62,3.62,0,0,1-.87,1,1.9,1.9,0,0,1-1.18.34,3.2,3.2,0,0,1-1.8-.77,26.48,26.48,0,0,0-2.59-1.71,21,21,0,0,0-3.78-1.7,16.09,16.09,0,0,0-5.34-.78,15.85,15.85,0,0,0-5.24.8A11.07,11.07,0,0,0,200,47.4a8.76,8.76,0,0,0-2.3,3.21,10.09,10.09,0,0,0-.78,4,7.34,7.34,0,0,0,1.35,4.53,11.6,11.6,0,0,0,3.54,3.07,27.2,27.2,0,0,0,5,2.2l5.73,1.94q2.94,1,5.74,2.25a20.2,20.2,0,0,1,5,3.16,14.59,14.59,0,0,1,3.55,4.69,15.64,15.64,0,0,1,1.34,6.82,22,22,0,0,1-1.45,8,18.39,18.39,0,0,1-4.26,6.53,19.78,19.78,0,0,1-6.87,4.37,25.29,25.29,0,0,1-9.26,1.59,28.29,28.29,0,0,1-11.53-2.29,27.14,27.14,0,0,1-8.9-6.21l2.55-4.19a3.24,3.24,0,0,1,.89-.84,2,2,0,0,1,1.16-.34,3.64,3.64,0,0,1,2.18,1c.82.68,1.85,1.43,3.07,2.25a23.44,23.44,0,0,0,4.46,2.25,17.48,17.48,0,0,0,6.4,1,16.69,16.69,0,0,0,5.59-.87,11.77,11.77,0,0,0,4.17-2.43,10.74,10.74,0,0,0,2.61-3.75,12.5,12.5,0,0,0,.91-4.87,8.22,8.22,0,0,0-1.34-4.85A11.14,11.14,0,0,0,215,76.52a24.25,24.25,0,0,0-5-2.16l-5.73-1.82a57.32,57.32,0,0,1-5.74-2.16,18.67,18.67,0,0,1-5-3.19A14.55,14.55,0,0,1,190,62.3a18.67,18.67,0,0,1,0-13.95,17.19,17.19,0,0,1,3.89-5.73,18.74,18.74,0,0,1,6.3-4,23.07,23.07,0,0,1,8.62-1.5,27.41,27.41,0,0,1,10,1.73,23,23,0,0,1,7.88,5Z"/><path class="cls-1" d="M87.77,212.25H80.94a2.91,2.91,0,0,1-1.91-.6,3.6,3.6,0,0,1-1.09-1.5l-6.1-15.74H42.59l-6.1,15.74a3.6,3.6,0,0,1-1.09,1.46,3,3,0,0,1-1.91.64H26.66L52.73,147h9ZM45,188H69.39L59.15,161.51a48.93,48.93,0,0,1-2-6.14c-.33,1.25-.66,2.39-1,3.44s-.63,2-.93,2.75Z"/><path class="cls-1" d="M123.26,185v27.21h-8.79V147H132.9a39.94,39.94,0,0,1,10.69,1.26,20.35,20.35,0,0,1,7.44,3.61,14.47,14.47,0,0,1,4.35,5.71,19.12,19.12,0,0,1,1.41,7.49,18.72,18.72,0,0,1-1.09,6.46,17.09,17.09,0,0,1-3.16,5.39,19.07,19.07,0,0,1-5.06,4.07,24.71,24.71,0,0,1-6.75,2.55,9.32,9.32,0,0,1,2.91,2.78l19,25.89h-7.83a3.87,3.87,0,0,1-3.55-1.87l-16.92-23.3a5.05,5.05,0,0,0-1.69-1.57,6.17,6.17,0,0,0-2.73-.47Zm0-6.42h9.23a22.5,22.5,0,0,0,6.8-.93,13.78,13.78,0,0,0,4.92-2.64,11,11,0,0,0,3-4.07,13.25,13.25,0,0,0,1-5.23c0-3.89-1.28-6.81-3.85-8.79s-6.37-3-11.44-3h-9.64Z"/><path class="cls-1" d="M246.24,179.67A36.64,36.64,0,0,1,243.92,193a29.63,29.63,0,0,1-6.55,10.28,29.14,29.14,0,0,1-10.15,6.62,35.11,35.11,0,0,1-13.1,2.35H189.73V147h24.39a35.31,35.31,0,0,1,13.1,2.35A28.91,28.91,0,0,1,237.37,156a29.85,29.85,0,0,1,6.55,10.31A36.61,36.61,0,0,1,246.24,179.67Zm-9.05,0a32.74,32.74,0,0,0-1.64-10.74,22.73,22.73,0,0,0-4.64-8,19.79,19.79,0,0,0-7.28-5,25,25,0,0,0-9.51-1.73H198.6V205.1h15.52a25,25,0,0,0,9.51-1.73,19.87,19.87,0,0,0,7.28-5,22.42,22.42,0,0,0,4.64-8A32.83,32.83,0,0,0,237.19,179.67Z"/><polygon class="cls-1" points="123.5 212 114.5 212 -0.5 212 -0.5 220 114.5 220 114.5 260 123.5 260 123.5 220 260.5 220 260.5 212 123.5 212"/><rect class="cls-1" x="-0.5" y="103" width="265" height="8"/><rect class="cls-1" x="16.92" y="18.84" width="9.17" height="45.91" transform="translate(-20.51 62.86) rotate(-89.41)"/><rect class="cls-1" x="-0.5" y="188" width="43" height="6"/><path class="cls-2" d="M52.13,66.42h3.32A7.42,7.42,0,0,0,58.21,66a5.41,5.41,0,0,0,1.93-1.48l21.7-24.57a7,7,0,0,1,1.94-1.62,5.21,5.21,0,0,1,2.39-.48h7.5L68.83,65.92A21,21,0,0,1,67,67.69a8.2,8.2,0,0,1-1.79,1.19,6.44,6.44,0,0,1,2.23,1.22,19.7,19.7,0,0,1,2,2.05l25.93,30.9H87.76a6.69,6.69,0,0,1-1.46-.14,3.94,3.94,0,0,1-1-.37,3.18,3.18,0,0,1-.8-.59c-.24-.24-.48-.5-.72-.77L61.23,75.29q-.49-.54-.93-.93a4.13,4.13,0,0,0-1-.66A4.87,4.87,0,0,0,58,73.31a13.45,13.45,0,0,0-1.84-.11h-4v29.85H43.35V37.84h8.78Z"/><path class="cls-2" d="M131.67,75.84v27.21h-8.79V37.84h18.43A39.94,39.94,0,0,1,152,39.1a20.35,20.35,0,0,1,7.44,3.61,14.47,14.47,0,0,1,4.35,5.71,19.12,19.12,0,0,1,1.41,7.49,18.72,18.72,0,0,1-1.09,6.46A17.09,17.09,0,0,1,161,67.76a19.07,19.07,0,0,1-5.06,4.07,24.71,24.71,0,0,1-6.75,2.55,9.32,9.32,0,0,1,2.91,2.78l19,25.89h-7.83a3.87,3.87,0,0,1-3.55-1.87l-16.92-23.3a5.05,5.05,0,0,0-1.69-1.57,6.17,6.17,0,0,0-2.73-.47Zm0-6.42h9.23a22.61,22.61,0,0,0,6.81-.93,13.82,13.82,0,0,0,4.91-2.64,11,11,0,0,0,3-4.07,13.27,13.27,0,0,0,1-5.24q0-5.82-3.85-8.78t-11.44-2.95h-9.64Z"/><path class="cls-2" d="M231.54,48a3.62,3.62,0,0,1-.87,1,1.9,1.9,0,0,1-1.18.34,3.2,3.2,0,0,1-1.8-.77,26.48,26.48,0,0,0-2.59-1.71,21,21,0,0,0-3.78-1.7,16.09,16.09,0,0,0-5.34-.78,15.85,15.85,0,0,0-5.24.8A11.07,11.07,0,0,0,207,47.4a8.76,8.76,0,0,0-2.3,3.21,10.09,10.09,0,0,0-.78,4,7.34,7.34,0,0,0,1.35,4.53,11.6,11.6,0,0,0,3.54,3.07,27.2,27.2,0,0,0,5,2.2l5.73,1.94q2.94,1,5.74,2.25a20.2,20.2,0,0,1,5,3.16,14.59,14.59,0,0,1,3.55,4.69,15.64,15.64,0,0,1,1.34,6.82,22,22,0,0,1-1.45,8,18.39,18.39,0,0,1-4.26,6.53,19.78,19.78,0,0,1-6.87,4.37,25.29,25.29,0,0,1-9.26,1.59,28.29,28.29,0,0,1-11.53-2.29,27.14,27.14,0,0,1-8.9-6.21l2.55-4.19a3.24,3.24,0,0,1,.89-.84,2,2,0,0,1,1.16-.34,3.64,3.64,0,0,1,2.18,1c.82.68,1.85,1.43,3.07,2.25a23.44,23.44,0,0,0,4.46,2.25,17.48,17.48,0,0,0,6.4,1,16.69,16.69,0,0,0,5.59-.87,11.77,11.77,0,0,0,4.17-2.43,10.74,10.74,0,0,0,2.61-3.75,12.5,12.5,0,0,0,.91-4.87,8.22,8.22,0,0,0-1.34-4.85A11.14,11.14,0,0,0,222,76.52a24.25,24.25,0,0,0-5-2.16l-5.73-1.82a57.32,57.32,0,0,1-5.74-2.16,18.67,18.67,0,0,1-5-3.19A14.55,14.55,0,0,1,197,62.3a18.67,18.67,0,0,1,0-13.95,17.19,17.19,0,0,1,3.89-5.73,18.74,18.74,0,0,1,6.3-4,23.07,23.07,0,0,1,8.62-1.5,27.41,27.41,0,0,1,10,1.73,23,23,0,0,1,7.88,5Z"/><path class="cls-2" d="M94.77,212.25H87.94a2.91,2.91,0,0,1-1.91-.6,3.6,3.6,0,0,1-1.09-1.5l-6.1-15.74H49.59l-6.1,15.74a3.6,3.6,0,0,1-1.09,1.46,3,3,0,0,1-1.91.64H33.66L59.73,147h9ZM52,188H76.39L66.15,161.51a48.93,48.93,0,0,1-2-6.14c-.33,1.25-.66,2.39-1,3.44s-.63,2-.93,2.75Z"/><path class="cls-2" d="M130.26,185v27.21h-8.79V147H139.9a39.94,39.94,0,0,1,10.69,1.26,20.35,20.35,0,0,1,7.44,3.61,14.47,14.47,0,0,1,4.35,5.71,19.12,19.12,0,0,1,1.41,7.49,18.72,18.72,0,0,1-1.09,6.46,17.09,17.09,0,0,1-3.16,5.39,19.07,19.07,0,0,1-5.06,4.07,24.71,24.71,0,0,1-6.75,2.55,9.32,9.32,0,0,1,2.91,2.78l19,25.89h-7.83a3.87,3.87,0,0,1-3.55-1.87l-16.92-23.3a5.05,5.05,0,0,0-1.69-1.57,6.17,6.17,0,0,0-2.73-.47Zm0-6.42h9.23a22.5,22.5,0,0,0,6.8-.93,13.78,13.78,0,0,0,4.92-2.64,11,11,0,0,0,3-4.07,13.25,13.25,0,0,0,1-5.23c0-3.89-1.28-6.81-3.85-8.79s-6.37-3-11.44-3h-9.64Z"/><path class="cls-2" d="M253.24,179.67A36.64,36.64,0,0,1,250.92,193a29.63,29.63,0,0,1-6.55,10.28,29.14,29.14,0,0,1-10.15,6.62,35.11,35.11,0,0,1-13.1,2.35H196.73V147h24.39a35.31,35.31,0,0,1,13.1,2.35A28.91,28.91,0,0,1,244.37,156a29.85,29.85,0,0,1,6.55,10.31A36.61,36.61,0,0,1,253.24,179.67Zm-9.05,0a32.74,32.74,0,0,0-1.64-10.74,22.73,22.73,0,0,0-4.64-8,19.79,19.79,0,0,0-7.28-5,25,25,0,0,0-9.51-1.73H205.6V205.1h15.52a25,25,0,0,0,9.51-1.73,19.87,19.87,0,0,0,7.28-5,22.42,22.42,0,0,0,4.64-8A32.83,32.83,0,0,0,244.19,179.67Z"/><polygon class="cls-2" points="129.73 212 120.35 212 0.5 212 0.5 220 120.35 220 120.35 260 129.73 260 129.73 220 272.5 220 272.5 212 129.73 212"/><rect class="cls-2" x="6.5" y="103" width="260" height="8"/></svg>
