<svg id="Layer_1" data-name="Layer 1" xmlns="http://www.w3.org/2000/svg" width="160" height="150" viewBox="0 0 160 150"><defs><style>.cls-1{fill:#f7a152;}.cls-2,.cls-3{fill:none;stroke-miterlimit:10;}.cls-2{stroke:#000;stroke-width:0.5px;}.cls-3{stroke:#020202;stroke-width:0.25px;}</style></defs><title>logo_IK_1</title><path class="cls-1" d="M38.77,45.94h43V53.8h-17v55.42h17V117h-43v-7.81H55.42V53.8H38.77Z"/><path class="cls-1" d="M89.36,74.78l-7.6,8.34v22.31H72.89v-66h8.87V71.65l6.62-8,20-24.25H119L95.09,68.3l25.48,37.13H110Z"/><path class="cls-2" d="M36.77,44.94h43V52.8h-17v55.42h17V116h-43v-7.81H53.42V52.8H36.77Z"/><path class="cls-2" d="M87.36,73.78l-7.6,8.34v22.31H70.89v-66h8.87V70.65l6.62-8,20-24.25H117L93.09,67.3l25.48,37.13H108Z"/><ellipse class="cls-3" cx="80.5" cy="78.5" rx="71.5" ry="66"/></svg>
